<svg xmlns="http://www.w3.org/2000/svg" xmlns:xlink="http://www.w3.org/1999/xlink" preserveAspectRatio="xMidYMid" width="674" height="400" viewBox="0 0 674 400">
  <defs>
    <style>

      .cls-2 {
        fill: #000000;
        filter: url(#filter-chain-1);
      }
    </style>

    <filter id="filter-chain-1" filterUnits="userSpaceOnUse">
      <feOffset in="SourceAlpha" dx="0" dy="3"/>
      <feGaussianBlur result="dropShadow" stdDeviation="7.681"/>
      <feFlood flood-color="#f7fefc" flood-opacity="1"/>
      <feComposite operator="in" in2="dropShadow"/>
      <feComposite in="SourceGraphic" result="dropShadow"/>
      <feFlood flood-color="#2398a8" flood-opacity="1"/>
      <feComposite operator="in" in2="SourceGraphic"/>
      <feBlend mode="normal" in2="dropShadow" result="colorOverlay"/>
    </filter>
  </defs>
  <path d="M538.151,209.360 C490.312,289.524 465.989,313.476 381.163,337.955 C381.163,337.955 328.187,338.880 328.187,338.880 C328.187,338.880 328.187,243.213 328.187,243.213 C328.187,243.213 347.788,242.853 363.484,236.859 C380.307,230.436 392.484,222.859 392.484,222.859 C392.484,222.859 393.303,272.627 393.303,272.627 C407.965,272.425 415.955,269.665 433.484,254.859 C441.645,247.972 451.922,235.742 460.610,222.799 C460.610,222.799 540.610,61.344 540.610,61.344 C540.610,61.344 613.151,61.252 613.151,61.252 C613.151,61.252 538.151,209.360 538.151,209.360 ZM302.921,231.073 C302.921,231.073 159.814,231.073 159.814,231.073 C159.814,231.073 159.814,168.532 159.814,168.532 C159.814,168.532 317.269,168.532 317.269,168.532 C331.002,168.532 341.734,164.916 349.459,157.679 C357.185,150.448 362.151,139.963 364.359,126.225 C364.359,126.225 128.543,126.225 128.543,126.225 C128.543,126.225 128.543,338.495 128.543,338.495 C128.543,338.495 60.852,338.495 60.852,338.495 C60.852,338.495 60.852,61.109 60.852,61.109 C60.852,61.109 429.474,61.109 429.474,61.109 C429.474,61.109 429.474,114.085 429.474,114.085 C429.474,192.077 387.288,231.073 302.921,231.073 Z" id="path-1" class="cls-2" fill-rule="evenodd"/>
</svg>
