<svg xmlns="http://www.w3.org/2000/svg" xmlns:xlink="http://www.w3.org/1999/xlink" preserveAspectRatio="xMidYMid" width="515" height="317" viewBox="0 0 515 317">
  <defs>
    <style>

      .cls-2 {
        fill: #2d7b9b;
        filter: url(#outer-glow-1);
      }
    </style>

    <filter id="outer-glow-1" filterUnits="userSpaceOnUse">
      <feGaussianBlur stdDeviation="14.333" in="SourceAlpha"/>
      <feComposite/>
      <feComposite/>
      <feComposite result="outerGlowBlur"/>
      <feFlood flood-color="#ffffff" flood-opacity="0.79"/>
      <feComposite operator="in" in2="outerGlowBlur"/>
      <feComposite in="SourceGraphic" result="outerGlow"/>
    </filter>
  </defs>
  <path d="M479.660,273.076 C479.660,273.076 477.791,274.932 477.791,274.932 C455.393,281.163 442.787,285.077 439.973,286.671 C430.002,283.913 411.273,273.818 383.786,256.386 C356.010,238.761 337.768,228.745 329.058,226.336 C324.021,224.942 312.892,226.779 295.675,231.845 C295.675,231.845 293.532,230.405 293.532,230.405 C293.532,230.405 293.016,222.467 293.016,222.467 C293.016,222.467 294.299,220.280 294.299,220.280 C296.949,218.866 303.017,216.533 312.502,213.283 C329.608,207.394 343.121,203.676 353.039,202.127 C354.935,202.010 358.103,204.036 358.103,204.036 C359.445,204.666 360.944,205.432 362.565,206.304 C365.258,194.253 366.639,181.267 366.639,167.299 C366.639,135.723 360.294,110.652 347.611,92.087 C334.925,73.523 274.834,70.239 274.834,70.239 C269.012,61.730 258.813,50.328 258.813,50.328 C307.811,50.328 380.032,61.845 400.938,94.945 C411.608,111.824 416.944,133.110 416.944,158.806 C416.944,181.448 408.005,210.057 399.041,229.651 C400.189,230.447 401.351,231.256 402.539,232.087 C402.539,232.087 424.701,247.538 424.701,247.538 C436.541,255.783 446.398,260.995 454.268,263.172 C459.621,264.653 468.474,264.502 480.829,262.724 C480.829,262.724 482.011,264.576 482.011,264.576 C482.011,264.576 479.660,273.076 479.660,273.076 ZM292.944,158.806 C292.944,184.178 287.988,206.498 278.081,225.771 C277.318,227.248 276.522,228.691 275.709,230.115 C276.644,230.765 277.578,231.415 278.539,232.087 C278.539,232.087 300.701,247.538 300.701,247.538 C312.541,255.783 322.398,260.995 330.268,263.172 C335.621,264.653 344.474,264.502 356.829,262.724 C356.829,262.724 358.011,264.576 358.011,264.576 C358.011,264.576 355.660,273.076 355.660,273.076 C355.660,273.076 353.791,274.932 353.791,274.932 C331.393,281.163 318.787,285.077 315.973,286.671 C306.002,283.913 287.273,273.818 259.786,256.386 C258.761,255.736 257.777,255.118 256.778,254.488 C250.011,260.948 242.361,266.486 233.819,271.094 C214.546,281.491 191.517,286.692 164.731,286.692 C161.355,286.692 157.925,286.583 154.441,286.366 C153.114,286.352 150.883,286.120 149.052,285.876 C117.583,283.696 92.594,272.483 74.084,252.230 C54.701,231.107 45.011,202.961 45.011,167.789 C45.011,129.790 56.171,99.873 78.494,78.040 C100.814,56.211 132.009,45.293 172.081,45.293 C221.079,45.293 256.032,61.845 276.938,94.945 C287.608,111.824 292.944,133.110 292.944,158.806 ZM223.611,92.087 C210.925,73.523 192.334,64.239 167.834,64.239 C135.495,64.239 114.043,78.775 103.483,107.848 C98.037,122.767 95.317,139.480 95.317,157.990 C95.317,191.635 101.523,218.204 113.936,237.694 C126.783,257.839 146.002,267.910 171.591,267.910 C197.102,267.910 215.726,257.562 227.477,236.883 C217.243,231.164 209.753,227.634 205.058,226.336 C200.021,224.942 188.892,226.779 171.675,231.845 C171.675,231.845 169.532,230.405 169.532,230.405 C169.532,230.405 169.016,222.467 169.016,222.467 C169.016,222.467 170.299,220.280 170.299,220.280 C172.949,218.866 179.017,216.533 188.502,213.283 C205.608,207.394 219.121,203.676 229.039,202.127 C230.935,202.010 234.103,204.036 234.103,204.036 C235.445,204.666 236.944,205.432 238.565,206.304 C241.258,194.253 242.639,181.267 242.639,167.299 C242.639,135.723 236.294,110.652 223.611,92.087 Z" id="path-1" class="cls-2" fill-rule="evenodd"/>
</svg>
